<?xml version="1.0" encoding="utf-8"?>
<!-- Generator: Adobe Illustrator 19.2.0, SVG Export Plug-In . SVG Version: 6.00 Build 0)  -->
<svg version="1.1" id="图层_1" xmlns="http://www.w3.org/2000/svg" xmlns:xlink="http://www.w3.org/1999/xlink" x="0px" y="0px"
	 viewBox="0 0 450 450" style="enable-background:new 0 0 450 450;" xml:space="preserve">
<style type="text/css">
	.st0{display:none;fill:none;stroke:#040000;stroke-width:0.3;stroke-miterlimit:10;}
	.st1{display:none;}
	.st2{display:inline;fill:none;stroke:#000000;stroke-width:0.3;stroke-miterlimit:10;}
	.st3{display:none;fill:none;stroke:#000000;stroke-width:0.3;stroke-miterlimit:10;}
	.st4{display:none;fill:none;stroke:#000000;stroke-width:0.3;stroke-linecap:round;stroke-miterlimit:10;}
	.st5{fill:none;stroke:#000000;stroke-width:0.3;stroke-miterlimit:10;}
	.st6{fill:none;stroke:#000000;stroke-width:0.3;stroke-linecap:round;stroke-miterlimit:10;}
</style>
<path class="st0" d="M250,395.5c0,0-60.5,2.2-106.2-56.5c0,0-34.4-36.3-29.3-101"/>
<path class="st0" d="M318.6,144.6c35.1,35.1,51.6,86.3,38.9,131.9"/>
<path class="st0" d="M196.3,103c5-0.6,10.3-0.9,15.7-1c4.7-0.1,9.4,0,13.9,0.3"/>
<path class="st0" d="M79.5,183c0,0,13.2-32.4,49.3-56.3"/>
<path class="st0" d="M71.3,147.3c0,0,69.3-98.7,190.7-63.3"/>
<path class="st0" d="M294.5,96c0,0,62.8,30.7,82.2,100.7"/>
<path class="st0" d="M137.7,40c0,0,76-32,156.8,3.3"/>
<path class="st0" d="M332.4,60.8c0,0,14.2,9.6,27.2,20.8"/>
<path class="st0" d="M98,88c0,0,137.2-102,261.6,30.5"/>
<path class="st0" d="M77.5,320.5c0,0,19.9,61,85.2,99.5"/>
<path class="st0" d="M153.5,384c0,0,54,46,123.5,36"/>
<path class="st0" d="M370,308.7c0,0-37,79.2-138.3,61.6"/>
<path class="st0" d="M279.5,395.5c0,0,47.8-5,80.1-34.5"/>
<path class="st0" d="M88.9,251c-0.8,30.9,8,69.9,42.4,110"/>
<path class="st0" d="M88.9,251"/>
<path class="st0" d="M95.7,210.5"/>
<path class="st0" d="M106,186.3c0,0-5.5,9-10.3,24.2"/>
<path class="st0" d="M331,213.8c0,0,20,46.8-12,83.5"/>
<path class="st0" d="M351.3,292c0,0-11.3,30.3-52.8,49.7"/>
<path class="st0" d="M126.5,128c0,0,26-20,68-26"/>
<path class="st0" d="M225,102c0,0,53.5,3,90.5,41"/>
<path class="st0" d="M108,183c0,0,19-42.5,86.5-55S306,168.5,306,168.5"/>
<path class="st0" d="M114.5,233c0,0,7.2-43.2,41.8-64.5"/>
<path class="st0" d="M179.8,156.2c0,0,72.5-28,118.8,44.5"/>
<path class="st0" d="M138.5,265c0,0-10.5-54.8,42.5-82"/>
<path class="st0" d="M183.5,181.5c0,0,57-24,92.2,29.5"/>
<path class="st0" d="M143.8,286.5c0,0,19.7,64,84.8,82.2"/>
<path class="st0" d="M114.5,265.8c0,0-0.5,38.2,25.8,69"/>
<g class="st1">
	<path class="st2" d="M79.3,182.7c0,0,13.7-26.9,42.1-49.9"/>
	<path class="st2" d="M220.3,101.4c15.4,1.2,32,4.8,50,11.6c15.5,5.9,32.3,17,47.2,32"/>
	<path class="st2" d="M319.7,147.3c29.8,31.3,51.2,78.4,37.6,130"/>
	<path class="st2" d="M124.4,130.5c18.3-14.1,42.2-26.2,72.1-28.9"/>
	<path class="st2" d="M200.5,101.2c5.6-0.4,11.5-0.4,17.6,0"/>
</g>
<g id="pwlChk.tif" class="st1">
	
</g>
<path class="st3" d="M331.3,60.9c9.4,6,18.8,13,28.1,21.1"/>
<path class="st3" d="M136.3,40.7c0,0,76.8-32.3,161.1,2.5"/>
<path class="st3" d="M97,89c14.6-16,151.4-90.8,265,30.3"/>
<path class="st3" d="M292.3,96c29.9,15.1,65.3,41.1,85.7,103"/>
<path class="st3" d="M70.3,149.7c16.1-21.9,82.5-96.7,193.9-65.5"/>
<path class="st3" d="M77,320c0,0,22.3,65.3,88.7,101.7"/>
<path class="st3" d="M152.7,382.7c0,0,48.7,46,125.7,39"/>
<path class="st3" d="M278.3,396c0,0,48.3-4.7,81.3-35"/>
<path class="st4" d="M144.9,339.6c22.1,29,56.7,51.8,106.4,56.4"/>
<path class="st4" d="M234.2,369.5c7,1.5,14.5,2.4,22.5,2.5c79.4,1.7,112.3-61,112.3-61"/>
<path class="st3" d="M319.9,146.8c11.9,12.3,17.7,22.2,17.7,22.2s36.4,51.6,19.2,107.6"/>
<path class="st3" d="M199.4,101.4c2.3-0.2,4.7-0.3,7-0.4c4.4-0.2,8.6-0.1,12.7,0"/>
<path class="st3" d="M80.4,182.2c0,0,12.7-27.2,41.5-50.1"/>
<path class="st5" d="M131.7,362.3c0,0-74-76.8-28.3-171c0.4-0.9,0.9-1.8,1.4-2.8"/>
<path class="st6" d="M320.7,294.3c0,0,24.9-29,11.4-77.4"/>
<path class="st6" d="M114.1,238.5c-0.8,6.4-1,13.1-0.4,20.2c0.1,0.6,0.1,1.2,0.2,1.8"/>
<path class="st5" d="M299.5,340.5c20.1-8,39.5-23,51.3-47.5"/>
<g id="PTpMOn.tif" class="st1">
	
</g>
<path class="st3" d="M220,126.2"/>
<path class="st3" d="M123.3,131c18.3-14.2,42.9-26.6,74.7-29.4"/>
<path class="st3" d="M222.3,126.4c3.9,0.3,8,0.7,12.1,1.3c20.9,3.4,56.3,18.7,73,42.7"/>
<path class="st3" d="M220.3,101.1c16.6,0.8,31.4,4.3,44.4,9.2l1.5,0.6c23.1,9,40.4,22.6,52.2,34.5"/>
<path class="st3" d="M106.5,185.4c16.8-29.2,55.4-62.2,113.5-59.2"/>
<path class="st4" d="M331.3,214.4c-2.4-7.9-5.9-16.3-10.6-25.2"/>
<path class="st4" d="M157.3,167c0,0-35.4,25.2-42.7,68"/>
<path class="st4" d="M307.2,216.3c-2.8-7.7-6.9-15.6-12.4-23.3c-23.6-32.8-70.4-53.6-113.6-37.2"/>
<path class="st4" d="M114.3,264.1c3,23.9,12,49.8,28.4,72.4"/>
<path class="st4" d="M139.1,263.2c0,0-6.5-35.8,18.9-63.4c18.6-20.2,47-28.7,73.6-22c7.7,1.9,15.8,5.2,23.7,10.7"/>
<path class="st4" d="M144,286c0,0,21.6,66.4,86.2,82.5"/>
<path class="st4" d="M257.6,190.2c11.5,8.6,20.1,20.5,25.1,33.9c2.7,7.2,4.8,15.8,4.1,24.2c-0.9,10.1-7.2,19.2-16.6,23
	c-4,1.6-8.8,2.5-14.1,1.1"/>
<path class="st3" d="M171.1,286c14.8,38,45.4,54.2,72.1,60.2c14.2,3.2,33.7,2.5,52.9-4.4"/>
<path class="st4" d="M189.1,245.5c-1,9.8-1.2,36.8,22.3,57.9c12.9,11.6,29.5,18.3,46.8,19c17,0.8,39.9-3.3,59.4-24.5"/>
<path class="st3" d="M262,248.6c0,0,2.4-21.2-18.4-38.8s-49.2-7.2-52.8-4.8c-3.6,2.4-36.4,17.2-24.4,66c1.1,4.4,2.3,8.5,3.8,12.4"/>
<path class="st4" d="M253.8,271.8c-7.1-2.5-12.5-8.3-15.1-15.4c-1-2.7-1.8-6-2-9.4c-0.3-5-2.2-9.8-5.4-13.7
	c-1.5-1.7-3.4-3.4-5.7-4.9c-13.3-8-30.9-1.4-35.9,13.3"/>
<path class="st4" d="M213.2,248.6c0,0-2.4,29.2,24.8,43.2s53.2,2.8,65.2-13.6c8.9-12.2,13-35.4,4.7-59.9"/>
</svg>
