<?xml version="1.0" encoding="utf-8"?>
<!-- Generator: Adobe Illustrator 19.2.0, SVG Export Plug-In . SVG Version: 6.00 Build 0)  -->
<svg version="1.1" xmlns="http://www.w3.org/2000/svg" xmlns:xlink="http://www.w3.org/1999/xlink" x="0px" y="0px"
	 viewBox="0 0 450 450" enable-background="new 0 0 450 450" xml:space="preserve">
<g id="_x31_5">
	<path fill="none" stroke="#000000" stroke-width="0.3" stroke-linecap="round" stroke-linejoin="round" stroke-miterlimit="10" d="
		M144.1,88.7c0,0,14.5-6.4,28.4-9.7s20.6-3.8,26.6-4.4"/>
	<path fill="none" stroke="#000000" stroke-width="0.3" stroke-linecap="round" stroke-linejoin="round" stroke-miterlimit="10" d="
		M248.8,369.2c0,0,14.2,2.1,30.4,0c16.3-2.1,28.3-6.7,34.5-9.4"/>
	<path fill="none" stroke="#000000" stroke-width="0.3" stroke-linecap="round" stroke-linejoin="round" stroke-miterlimit="10" d="
		M123,293.3c0,0,5.9,18.5,16.7,34.5c0,0,8.1,12.1,16.3,20.6c8.2,8.6,12.3,11.6,13.7,12.8"/>
	<path fill="none" stroke="#000000" stroke-width="0.3" stroke-linecap="round" stroke-linejoin="round" stroke-miterlimit="10" d="
		M299.8,311.5c0,0,12.2-5.9,22.5-19.1s16.3-30.9,16-48s-4.3-30.7-7-38.5"/>
	<path fill="none" stroke="#000000" stroke-width="0.3" stroke-linecap="round" stroke-linejoin="round" stroke-miterlimit="10" d="
		M199.1,74.5c0,0,9-0.9,17.9-0.7s20.1,1.1,30.1,3.1s15.6,3.7,15.6,3.7"/>
</g>
</svg>
