<?xml version="1.0" encoding="utf-8"?>
<!-- Generator: Adobe Illustrator 19.2.0, SVG Export Plug-In . SVG Version: 6.00 Build 0)  -->
<svg version="1.1" id="图层_1" xmlns="http://www.w3.org/2000/svg" xmlns:xlink="http://www.w3.org/1999/xlink" x="0px" y="0px"
	 viewBox="0 0 450 450" style="enable-background:new 0 0 450 450;" xml:space="preserve">
<style type="text/css">
	.st0{display:none;fill:none;stroke:#040000;stroke-width:0.3;stroke-miterlimit:10;}
	.st1{display:none;}
	.st2{display:none;fill:none;stroke:#000000;stroke-width:0.3;stroke-linecap:round;stroke-miterlimit:10;}
	.st3{display:none;fill:none;stroke:#000000;stroke-width:0.3;stroke-miterlimit:10;}
	.st4{fill:none;stroke:#000000;stroke-width:0.3;stroke-linecap:round;stroke-miterlimit:10;}
	.st5{fill:none;stroke:#000000;stroke-width:0.3;stroke-miterlimit:10;}
</style>
<path class="st0" d="M250,395.5c0,0-60.5,2.2-106.2-56.5c0,0-34.4-36.3-29.3-101"/>
<path class="st0" d="M318.6,144.6c35.1,35.1,51.6,86.3,38.9,131.9"/>
<path class="st0" d="M196.3,103c5-0.6,10.3-0.9,15.7-1c4.7-0.1,9.4,0,13.9,0.3"/>
<path class="st0" d="M79.5,183c0,0,13.2-32.4,49.3-56.3"/>
<path class="st0" d="M71.3,147.3c0,0,69.3-98.7,190.7-63.3"/>
<path class="st0" d="M294.5,96c0,0,62.8,30.7,82.2,100.7"/>
<path class="st0" d="M137.7,40c0,0,76-32,156.8,3.3"/>
<path class="st0" d="M332.4,60.8c0,0,14.2,9.6,27.2,20.8"/>
<path class="st0" d="M98,88c0,0,137.2-102,261.6,30.5"/>
<path class="st0" d="M77.5,320.5c0,0,19.9,61,85.2,99.5"/>
<path class="st0" d="M153.5,384c0,0,54,46,123.5,36"/>
<path class="st0" d="M370,308.7c0,0-37,79.2-138.3,61.6"/>
<path class="st0" d="M279.5,395.5c0,0,47.8-5,80.1-34.5"/>
<path class="st0" d="M88.9,251c-0.8,30.9,8,69.9,42.4,110"/>
<path class="st0" d="M88.9,251"/>
<path class="st0" d="M95.7,210.5"/>
<path class="st0" d="M106,186.3c0,0-5.5,9-10.3,24.2"/>
<path class="st0" d="M331,213.8c0,0,20,46.8-12,83.5"/>
<path class="st0" d="M351.3,292c0,0-11.3,30.3-52.8,49.7"/>
<path class="st0" d="M126.5,128c0,0,26-20,68-26"/>
<path class="st0" d="M225,102c0,0,53.5,3,90.5,41"/>
<path class="st0" d="M108,183c0,0,19-42.5,86.5-55S306,168.5,306,168.5"/>
<path class="st0" d="M114.5,233c0,0,7.2-43.2,41.8-64.5"/>
<path class="st0" d="M179.8,156.2c0,0,72.5-28,118.8,44.5"/>
<path class="st0" d="M138.5,265c0,0-10.5-54.8,42.5-82"/>
<path class="st0" d="M183.5,181.5c0,0,57-24,92.2,29.5"/>
<path class="st0" d="M143.8,286.5c0,0,19.7,64,84.8,82.2"/>
<path class="st0" d="M114.5,265.8c0,0-0.5,38.2,25.8,69"/>
<g id="pwlChk.tif" class="st1">
	
</g>
<path class="st2" d="M333.4,62.4c8,5.1,16,11.1,23.9,18"/>
<path class="st2" d="M136.3,40.7c0,0,76.8-32.3,161.1,2.5"/>
<path class="st2" d="M97,89c0,0,55.4-41.5,123.6-37S325.2,80.9,362,119.3"/>
<path class="st3" d="M70.3,149.7c0,0,73.9-102.8,193.9-65.5"/>
<path class="st3" d="M77,320c0,0,22.3,65.3,88.7,101.7"/>
<path class="st3" d="M152.7,382.7c0,0,48.7,46,125.7,39"/>
<path class="st3" d="M278.3,396c0,0,48.3-4.7,81.3-35"/>
<path class="st2" d="M144.8,339.6c24.1,30.9,61,53.8,106.9,57.6"/>
<path class="st2" d="M292.3,96c29.9,15.1,71.8,50.7,85.7,103"/>
<path class="st2" d="M232.8,368.7c8.5,2,17.8,3.3,27.9,3.6C336.9,375,370,309.7,370,309.7"/>
<path class="st4" d="M298.3,340.4c20.3-8.2,39.1-23.6,52.9-47.2"/>
<path class="st5" d="M105.2,188.8C95.3,206,87.8,228.3,89,256c3,64,39,102.6,42.5,107"/>
<path class="st2" d="M320.1,146.7c7.8,8.3,14.6,17.5,20.2,27.6c21.8,34.3,25.3,73.7,16.7,102.3"/>
<path class="st2" d="M114.1,238.1c-0.9,7.2-1.2,15-0.4,23.4"/>
<path class="st3" d="M79.8,182.2c0,0,14.1-27.5,42.5-50.1"/>
<path class="st2" d="M319.3,296.3c3.7-4.4,7-9.2,9.7-14.5c9.1-17.9,10.7-39.4,2.8-65.6"/>
<path class="st3" d="M200.2,101.7c6.3-0.5,12.5-0.6,18.7-0.4"/>
<g id="PTpMOn.tif" class="st1">
	
</g>
<path class="st3" d="M123.7,131c12.6-9.8,27.9-18.5,46-23.5c9.2-2.9,18.6-4.7,28-5.6"/>
<path class="st2" d="M113.8,263.5c0.1,0.7,0.2,1.5,0.2,2.2c2.8,25,12.8,49.9,28.7,71.3"/>
<path class="st2" d="M155.5,168.2c0,0-33.8,22-41,66.8"/>
<path class="st3" d="M307.5,170.8c0,0-31.5-39.8-82.5-43.8s-80.5,19.2-80.5,19.2s-21.2,13.1-37.4,39.4"/>
<path class="st3" d="M220.9,101.4c19.3,1,37.1,5.3,50.4,11.1c17.5,7.9,33.5,18.7,46.8,32.2"/>
<path class="st2" d="M143.7,284.7c0,0,17.6,66.5,87.7,83.7"/>
<path class="st2" d="M331.1,214.1c-2.8-8.7-6.6-17.9-11.5-27.6"/>
<path class="st2" d="M179.7,156.3c0,0,60.3-23,106,26.3"/>
<path class="st2" d="M193.8,320.4c27,25.9,67.5,34.4,103.3,20.5"/>
<path class="st2" d="M286.1,183.1c8.7,9.5,14.8,20,19.5,32.6c6,16.3,6.6,28.8,5.2,43.3"/>
<path class="st2" d="M201,291.1c18.3,25.3,45.1,33.2,66.2,32.3c19.5-0.8,39.9-13.4,51-26"/>
<path class="st2" d="M168.9,225.6c-10.2,20.3-7.5,49.4,9.3,75.4c4.3,7.1,9.4,13.4,15.1,19"/>
<path class="st2" d="M139.5,265.3c0,0-8.8-48.5,29.7-75.7c38.2-26.9,78.5-11.1,97.2,8.8"/>
<path class="st2" d="M262.2,250.2c0,0-1.5-46.4-45.8-49.9c-7-0.6-14.1,0.1-20.7,2.3c-12.1,4-21,12-26.4,22.3"/>
<path class="st2" d="M310.5,260.1c-6,24.8-27.1,39.4-49.8,38.1"/>
<path class="st2" d="M207.4,225.5c-4.2,1-8.3,3.1-11.9,6.5c-15.3,15.5-5.6,44.1,5.5,59.1"/>
<path class="st2" d="M266.8,199c16.4,19,27.2,50.8,14.2,66.3c-11.5,13.8-33.8,10.6-41-5.8"/>
<path class="st2" d="M260.2,298.2c-34.5-2.7-47.3-28-47.5-50.7"/>
<path class="st2" d="M239.7,258.9c-1.3-2.6-2-5.6-2.2-8.8c-0.8-17.3-15.3-27.6-29.3-24.8"/>
</svg>
