<?xml version="1.0" encoding="utf-8"?>
<!-- Generator: Adobe Illustrator 19.2.0, SVG Export Plug-In . SVG Version: 6.00 Build 0)  -->
<svg version="1.1" id="图层_1" xmlns="http://www.w3.org/2000/svg" xmlns:xlink="http://www.w3.org/1999/xlink" x="0px" y="0px"
	 viewBox="0 0 580 580" style="enable-background:new 0 0 580 580;" xml:space="preserve">
<style type="text/css">
	.st0{display:none;}
	.st1{display:inline;}
	.st2{display:inline;clip-path:url(#SVGID_2_);}
	.st3{clip-path:url(#SVGID_4_);fill:#E5E5E5;}
	.st4{fill:#E5E5E5;}
	.st5{display:inline;fill:#E5E5E5;}
	.st6{display:inline;fill:none;stroke:#040404;stroke-width:2;stroke-linecap:round;stroke-miterlimit:10;}
	.st7{display:none;fill:none;stroke:#040404;stroke-width:2;stroke-linecap:round;stroke-miterlimit:10;}
	.st8{fill:none;stroke:#040404;stroke-width:2;stroke-linecap:round;stroke-miterlimit:10;}
</style>
<g class="st0">
	<defs>
		<path id="SVGID_1_" d="M451.1,271.5H451c-1.3,0-2.6-0.6-3.5-1.5c-0.9-0.9-1.4-2.2-1.4-3.5c0.2-7.4,0.3-14.7,0.3-21.6
			c-0.1-41-16-79.5-45-108.4c-29-28.9-67.5-44.9-108.4-45c-8.6,0-17.1,0.7-25.4,2.1c-2.7,0.4-5.2-1.4-5.7-4.1
			c-0.5-2.7,1.3-5.2,4.1-5.7c8.9-1.5,18-2.2,27.1-2.2c43.6,0,84.6,17,115.5,47.9c30.9,30.8,47.9,71.9,47.9,115.5
			c0,7.2-0.1,14.6-0.3,21.8C456,269.3,453.8,271.5,451.1,271.5z M267,460.5c-0.4,0-0.8,0-1.2-0.1c-2.7-0.6-4.3-3.4-3.6-6
			c4.3-17,8-34.2,11.2-51.3c9.7-52,14.7-105.2,14.7-158.2c0-2.7,2.2-4.9,4.9-4.9s4.9,2.2,4.9,4.9c0,53.5-5,107.4-14.8,160
			c-3.2,17.4-7,34.8-11.3,51.9C271.2,459,269.2,460.5,267,460.5z M232.4,568.9c-0.6,0-1.2-0.1-1.7-0.3c-1.2-0.5-2.2-1.4-2.8-2.6
			c-0.6-1.2-0.6-2.6-0.2-3.8l7.9-21.6c4.7-12.9,9.2-26,13.2-38.9l0.4-1.6v0.5c1.1-1.9,3.6-2.9,5.7-2.2c2.6,0.8,4.1,3.6,3.3,6.2
			c-4.2,13.2-8.7,26.5-13.4,39.4l-7.9,21.6C236.3,567.5,234.4,568.9,232.4,568.9z M351.1,569.1c-0.6,0-1.1-0.1-1.7-0.3
			c-2.6-0.9-3.9-3.8-2.9-6.3l8-21.8c15.4-42,27.5-85.4,36.2-129.3c0.5-2.7,3.2-4.4,5.8-3.9c2.7,0.5,4.4,3.1,3.9,5.8
			c-8.7,44.3-21,88.3-36.6,130.7l-8,21.8C355,567.9,353.1,569.1,351.1,569.1z M132.7,514.7c-0.5,0-1-0.1-1.5-0.2
			c-2.6-0.8-4-3.6-3.2-6.2c5.9-18.4,11.3-37.4,16-56.2c0.7-2.7,3.3-4.3,6-3.6c2.7,0.7,4.3,3.3,3.6,6c-4.7,19.1-10.2,38.2-16.2,56.9
			C136.7,513.3,134.8,514.7,132.7,514.7z M159.3,409.8c-0.3,0-0.6,0-0.9-0.1c-2.7-0.5-4.5-3.1-3.9-5.8c3.7-19.4,6.7-39.2,9-58.8
			c3.8-32.3,5.8-65.2,5.9-97.7c0-2.7,2.2-4.9,4.9-4.9h0c2.7,0,4.9,2.2,4.9,5c-0.1,32.9-2.1,66.1-5.9,98.8
			c-2.3,19.8-5.4,39.9-9.1,59.5C163.7,408.1,161.6,409.8,159.3,409.8z M403.6,368.5c-0.2,0-0.5,0-0.7,0c-2.7-0.4-4.6-2.9-4.2-5.6
			l0.8-6c4.9-37,7.3-74.6,7.3-112c0-14.3-2.6-28.2-7.8-41.4c-1-2.5,0.3-5.4,2.8-6.4c2.6-1,5.4,0.3,6.4,2.8c5.6,14.3,8.5,29.5,8.5,45
			c0,37.8-2.5,75.9-7.4,113.3l-0.8,6.1C408.2,366.7,406,368.5,403.6,368.5z M183.3,204.1c-0.6,0-1.3-0.1-1.9-0.4
			c-2.5-1.1-3.7-3.9-2.7-6.5c19.3-46.2,64.1-76.1,114.2-76.1c32.9,0,63.8,12.8,87.2,35.9c1.9,1.9,2,5.1,0,7c-1.9,1.9-5.1,1.9-7,0
			c-21.5-21.3-49.9-33-80.2-33c-46.1,0-87.3,27.5-105.1,70C187.1,202.9,185.3,204.1,183.3,204.1z M309,575.9c-0.6,0-1.1-0.1-1.7-0.3
			c-2.6-0.9-3.9-3.8-2.9-6.3l11.2-30.7c17.8-48.7,31.2-99.4,39.9-150.5c5.1-30.1,8.6-60.9,10.3-91.4c0.2-2.7,2.4-4.8,5.2-4.6
			c2.7,0.2,4.8,2.5,4.7,5.2c-1.8,30.9-5.3,62-10.5,92.5c-8.7,51.8-22.3,103-40.3,152.3l-11.2,30.7C312.9,574.6,311,575.9,309,575.9z
			 M164.1,538.7c-0.5,0-1.1-0.1-1.7-0.3c-2.6-0.9-3.9-3.7-3-6.3c17.8-50.3,31-102.5,39.2-155.1c1.2-7.6,2.3-15.2,3.2-22.8
			c0.4-2.7,2.8-4.6,5.5-4.3c2.7,0.3,4.6,2.8,4.3,5.5c-1,7.7-2.1,15.4-3.3,23c-8.3,53.3-21.6,106.1-39.6,156.9
			C168,537.5,166.1,538.7,164.1,538.7z M211.7,310.6c-0.1,0-0.2,0-0.4,0c-2.7-0.2-4.8-2.6-4.6-5.3c1.4-20,2.1-40.4,2.1-60.4
			c0-47.8,40.1-86.3,88.2-84c44.9,2.1,80.1,40,80.1,86.3c0,2.7-2.2,5.1-4.9,5.1c-2.7,0-4.9-2-4.9-4.8v-0.4c0-41-31-74.5-70.6-76.4
			c-42.5-2-77.8,32-77.8,74.1c0,20.3-0.7,40.9-2.2,61.1C216.4,308.6,214.2,310.6,211.7,310.6z M269.6,575.4c-0.6,0-1.1-0.1-1.7-0.3
			c-2.6-0.9-3.9-3.8-2.9-6.3l10.8-29.4c16.4-44.8,29.1-91.2,37.8-138.1c2.8-15.3,5.3-30.9,7.3-46.4c0.4-2.7,2.8-4.6,5.5-4.3
			c2.7,0.3,4.6,2.8,4.3,5.5c-2,15.6-4.5,31.4-7.3,46.9c-8.8,47.4-21.6,94.4-38.2,139.7l-10.8,29.4
			C273.5,574.2,271.6,575.4,269.6,575.4z M197.3,556.6c-0.6,0-1.1-0.1-1.7-0.3c-2.6-0.9-3.9-3.8-2.9-6.3l3.4-9.3
			c17.3-47.2,30.5-96.2,39.2-145.7c4.9-27.6,8.5-55.8,10.6-83.9c0.2-2.7,2.5-4.8,5.3-4.6c2.7,0.2,4.8,2.6,4.6,5.3
			c-2.2,28.3-5.8,56.9-10.8,84.8c-8.9,50-22.2,99.6-39.7,147.3l-3.4,9.3C201.2,555.4,199.3,556.6,197.3,556.6z M331.1,301.4
			c-0.1,0-0.2,0-0.3,0c-2.7-0.2-4.8-2.5-4.6-5.2c1-16.6,1.5-33.4,1.5-49.9c0-19-14.2-34.7-32.3-35.9c-20.4-1.3-37,14.7-37,34.6
			c0,5.8-0.1,11.6-0.2,17.4c-0.1,2.7-2.3,4.9-5.1,4.8c-2.7-0.1-4.9-2.3-4.8-5c0.1-5.7,0.2-11.4,0.2-17.2c0-25.6,21.5-46.2,47.5-44.5
			c23.3,1.5,41.6,21.6,41.6,45.8c0,16.8-0.5,33.8-1.5,50.5C335.9,299.3,333.7,301.4,331.1,301.4z M507.1,456.6c-0.3,0-0.7,0-1.1-0.1
			c-2.7-0.6-4.4-3.3-3.8-5.9c2.1-9.3,3.7-18.2,5.5-27.6c1.6-8.7,3.3-17.7,5.5-28.2v-0.1c1.9-10.7,3.2-18.6,4.2-25.7
			c4.7-36.6,7.1-74,7.1-111v-11.4c0-13.4-1.1-26.7-3.4-39.8c-0.2-1.3,0-2.6,0.8-3.7c0.8-1.1,1.9-1.8,3.2-2.1
			c2.6-0.4,5.2,1.4,5.7,4.1c2.4,13.7,3.6,27.6,3.6,41.5v11.4c0,37.6-2.4,75.4-7.2,112.3c-1.2,9-2.8,18.3-4.2,26.2v0.1
			c-2.2,10.4-3.9,19.3-5.4,28c-1.8,9.6-3.5,18.6-5.6,28.2C511.4,455,509.4,456.6,507.1,456.6z M50.6,338.9c-0.2,0-0.5,0-0.7,0
			c-2.7-0.4-4.6-2.9-4.2-5.6c0-0.1,0-0.2,0-0.4c0.9-7,4.1-32.6,4.1-65c0-3.6,0-7.4-0.1-11.3c-0.1-2.4-0.1-4.8-0.1-7.4
			c0-10,0.5-18.9,1.5-27.3c1.4-12.4,3.9-24.7,7.2-36.8c0.7-2.6,3.5-4.2,6-3.5c2.7,0.7,4.2,3.5,3.5,6.1c-3.1,11.5-5.4,23.4-6.9,35.3
			c-0.9,8-1.4,16.5-1.4,26.1c0,2.3,0,4.7,0.1,7.2c0.1,4,0.1,7.9,0.1,11.5c0,38.5-4.2,66.6-4.2,66.9C55.1,337.1,53,338.9,50.6,338.9z
			 M512.4,163.4c-2,0-3.8-1.2-4.6-3.1c-9.1-22.5-21.6-43.4-37.3-62.3c-15.4-18.6-33.6-34.5-53.9-47.5l-0.3-0.2
			c-1.4-0.9-2.3-2.5-2.3-4.2c0-1,0.2-1.9,0.8-2.7c1.4-2.2,4.6-3,6.8-1.5c21.3,13.6,40.3,30.3,56.5,49.7
			c16.3,19.5,29.4,41.4,38.9,64.9c1,2.5-0.2,5.4-2.7,6.4C513.6,163.3,513,163.4,512.4,163.4z M80.8,145.2c-0.7,0-1.5-0.1-2.2-0.5
			c-1.2-0.6-2.1-1.6-2.5-2.9c-0.4-1.2-0.3-2.6,0.3-3.8c20.1-39.6,50.3-73,87.4-96.6C202,17,246.3,4.1,291.9,4.1
			c29.1,0,57.6,5.1,84.7,15.3c2.5,1,3.8,3.8,2.9,6.4c-0.9,2.5-3.9,3.9-6.4,2.9C347,18.9,319.7,14,291.9,14
			c-43.6,0-86.1,12.4-122.8,35.7c-35.6,22.7-64.5,54.7-83.8,92.8C84.3,144.2,82.6,145.2,80.8,145.2z M448.5,517.4
			c-0.5,0-1-0.1-1.5-0.2c-2.6-0.8-4-3.6-3.2-6.2c28-86.2,42.2-175.7,42.2-266c0-36.4-10.2-71.8-29.4-102.5c-1.5-2.3-0.8-5.4,1.6-6.8
			c2.3-1.5,5.4-0.8,6.8,1.6c20.3,32.2,31,69.5,30.9,107.8c0,91.4-14.4,182-42.7,269.1C452.6,516.1,450.6,517.4,448.5,517.4z
			 M75,434.8c-0.4,0-0.7,0-1.1-0.1c-2.7-0.6-4.4-3.2-3.8-5.9c13.2-60.4,19.9-122.3,19.9-184c0-43.5,13.6-85,39.3-120
			c1.6-2.2,4.7-2.7,6.9-1.1c2.2,1.6,2.7,4.7,1.1,6.9C112.9,164,100,203.4,100,244.8c0,62.4-6.8,125-20.2,186.1
			C79.3,433.3,77.3,434.8,75,434.8z M429.6,106.5c-1.2,0-2.5-0.5-3.4-1.4C390.1,70.8,342.8,51.8,293,51.8
			c-44.7,0-88.2,15.6-122.6,43.9c-2.1,1.7-5.2,1.4-7-0.7c-1.7-2.1-1.4-5.2,0.7-7c36.2-29.8,82-46.2,128.9-46.2
			c52.4,0,102.1,19.9,140,56c2,1.9,2.1,5,0.2,7C432.2,106,430.9,106.5,429.6,106.5z M396.9,552c-0.6,0-1.1-0.1-1.7-0.3
			c-2.5-0.9-3.9-3.8-2.9-6.3l1.7-4.8c26.5-72.5,43.2-148.2,49.5-225.1c0.2-2.7,2.6-4.8,5.3-4.5c2.7,0.2,4.8,2.6,4.5,5.3
			c-6.4,77.8-23.3,154.4-50,227.7l-1.7,4.7C400.8,550.7,399,552,396.9,552z M102.8,482c-0.4,0-0.9,0-1.3-0.2c-1.3-0.3-2.3-1.2-3-2.3
			c-0.7-1.1-0.8-2.5-0.5-3.8c10.7-38.6,18.9-78.2,24.2-117.8c0.3-2.7,2.9-4.6,5.5-4.3c2.7,0.4,4.6,2.9,4.3,5.6
			c-5.4,40-13.5,80.1-24.4,119.2C107,480.5,105.1,482,102.8,482z M132.2,314.3h-0.4c-2.7-0.2-4.8-2.6-4.6-5.3
			c1.6-21.3,2.4-42.9,2.4-64.1c0-30.4,8.5-60.1,24.4-85.9c15.5-25,37.5-45.5,63.7-59c2.4-1.2,5.4-0.2,6.7,2.1
			c0.4,0.7,0.5,1.4,0.5,2.2c0,1.9-1,3.6-2.7,4.4c-24.5,12.8-45.2,32-59.8,55.5c-15,24.2-22.9,52.1-22.9,80.7
			c0,21.6-0.8,43.4-2.4,64.9C136.9,312.3,134.8,314.3,132.2,314.3z"/>
	</defs>
	<use xlink:href="#SVGID_1_"  style="display:inline;overflow:visible;fill-rule:evenodd;clip-rule:evenodd;fill:#E5E5E5;"/>
	<clipPath id="SVGID_2_" class="st1">
		<use xlink:href="#SVGID_1_"  style="overflow:visible;"/>
	</clipPath>
	<g class="st2">
		<defs>
			<rect id="SVGID_3_" x="-248.4" y="-952.8" width="1080" height="2340"/>
		</defs>
		<use xlink:href="#SVGID_3_"  style="overflow:visible;fill:#E5E5E5;"/>
		<clipPath id="SVGID_4_">
			<use xlink:href="#SVGID_3_"  style="overflow:visible;"/>
		</clipPath>
		<rect x="40.6" y="-0.9" class="st3" width="498.8" height="581.7"/>
	</g>
</g>
<g id="边缘扩展" class="st0">
	<g id="_x37_" class="st1">
		<path class="st4" d="M507.1,456.5c-0.3,0-0.7,0-1.1-0.1c-2.7-0.6-4.4-3.3-3.8-5.9c2.1-9.3,3.7-18.2,5.5-27.6
			c1.6-8.7,3.3-17.7,5.5-28.2v-0.1c1.9-10.7,3.2-18.6,4.2-25.7c4.7-36.6,7.1-74,7.1-111.1v-11.4c0-13.4-1.1-26.7-3.4-39.8
			c-0.2-1.3,0-2.6,0.8-3.7c0.8-1.1,1.9-1.8,3.2-2c2.7-0.5,5.2,1.3,5.7,4c2.4,13.7,3.6,27.6,3.6,41.5v11.4c0,37.6-2.4,75.4-7.2,112.4
			c-1.2,9-2.8,18.3-4.2,26.2v0.1c-2.2,10.4-3.9,19.4-5.5,28c-1.8,9.6-3.5,18.7-5.5,28.2C511.4,454.9,509.3,456.5,507.1,456.5z
			 M50.6,338.8L50.6,338.8c-0.2,0-0.5,0-0.7-0.1c-1.3-0.2-2.4-0.9-3.2-1.9c-0.8-1.1-1.1-2.4-0.9-3.7l0,0c0-0.1,0-0.2,0-0.4
			c0.9-7,4.1-32.5,4.1-65c0-3.6,0-7.4-0.1-11.3c-0.1-2.4-0.1-4.9-0.1-7.4c0-10,0.4-18.9,1.5-27.3c1.5-12.4,3.9-24.7,7.2-36.8
			c0.7-2.6,3.5-4.2,6.1-3.5c2.6,0.7,4.2,3.5,3.4,6.1c-3.1,11.5-5.4,23.4-6.9,35.3c-0.9,8-1.4,16.5-1.4,26.1c0,2.3,0,4.7,0.1,7.2
			c0.1,4,0.1,7.9,0.1,11.5c0,38.2-4.2,66.6-4.2,66.9C55.1,337,53,338.8,50.6,338.8z M512.4,163.2c-2,0-3.8-1.2-4.6-3.1
			c-9.1-22.5-21.6-43.5-37.3-62.3c-15.5-18.7-33.8-34.7-54.2-47.7c-1.4-0.9-2.3-2.5-2.3-4.2c0-0.9,0.2-1.8,0.8-2.6
			c1.4-2.2,4.6-3,6.8-1.5c21.3,13.6,40.3,30.3,56.5,49.7c16.3,19.5,29.4,41.4,38.9,64.9c1,2.5-0.2,5.4-2.7,6.4
			C513.6,163.2,513,163.2,512.4,163.2z M80.8,145.1c-0.7,0-1.5-0.1-2.2-0.5c-1.2-0.6-2.1-1.6-2.5-2.9c-0.4-1.2-0.3-2.6,0.3-3.8
			c20.1-39.6,50.3-73.1,87.4-96.7C202,16.8,246.3,3.9,291.9,3.9c29.1,0,57.6,5.2,84.6,15.3c1.2,0.5,2.2,1.4,2.8,2.6
			c0.5,1.2,0.6,2.5,0.1,3.8c-0.9,2.5-3.9,3.9-6.4,2.9c-26-9.8-53.3-14.7-81.2-14.7c-43.7,0-86.1,12.4-122.8,35.7
			c-35.5,22.6-64.5,54.7-83.8,92.8v0.1C84.3,144,82.6,145.1,80.8,145.1z"/>
	</g>
	<g id="_x36_" class="st1">
		<path class="st4" d="M448.5,517.3c-0.5,0-1-0.1-1.5-0.2c-2.6-0.8-4-3.6-3.2-6.2c28-86.2,42.2-175.7,42.2-266.1
			c0-36.4-10.2-71.9-29.4-102.5c-1.5-2.3-0.8-5.4,1.6-6.8c2.3-1.5,5.4-0.8,6.8,1.6c20.3,32.2,31,69.5,30.9,107.8
			c0,91.5-14.4,182-42.7,269.2C452.6,516,450.6,517.3,448.5,517.3z M75,434.8c-0.4,0-0.7,0-1.1-0.1c-2.7-0.6-4.4-3.2-3.8-5.9
			c13.2-60.4,19.9-122.3,19.9-184c0-43.5,13.6-85,39.3-120c1.6-2.2,4.7-2.7,6.9-1.1c2.2,1.6,2.7,4.7,1.1,6.9
			c-24.4,33.3-37.3,72.7-37.3,114.1c0,62.4-6.8,125-20.2,186.1C79.3,433.2,77.3,434.8,75,434.8z M429.6,106.3
			c-1.2,0-2.5-0.5-3.4-1.4c-36-34.3-83.3-53.3-133.1-53.3c-44.7,0-88.2,15.6-122.6,43.9c-2.1,1.7-5.2,1.4-7-0.7
			c-1.7-2.1-1.4-5.2,0.7-7c36.2-29.8,82-46.2,128.9-46.2c52.4,0,102.1,19.9,140,56c2,1.9,2.1,5,0.2,7
			C432.2,105.8,430.9,106.3,429.6,106.3z"/>
	</g>
	<g id="_x35_" class="st1">
		<path class="st4" d="M396.9,551.9c-0.6,0-1.2-0.1-1.7-0.3c-2.5-0.9-3.9-3.8-2.9-6.3l1.7-4.8c26.5-72.5,43.2-148.2,49.5-225.1
			c0.2-2.7,2.6-4.8,5.3-4.6c1.3,0.1,2.5,0.7,3.4,1.7c0.8,1,1.3,2.3,1.1,3.6c-6.4,77.8-23.3,154.4-50,227.7l-1.7,4.8
			C400.8,550.6,399,551.9,396.9,551.9z M102.8,481.9c-0.4,0-0.9,0-1.3-0.2c-1.3-0.3-2.3-1.2-3-2.3c-0.7-1.1-0.8-2.5-0.5-3.8
			c10.7-38.6,18.9-78.2,24.2-117.8c0.3-2.7,2.9-4.6,5.5-4.3c2.7,0.4,4.6,2.9,4.3,5.6c-5.3,40-13.5,80.1-24.4,119.2
			C107,480.5,105.1,481.9,102.8,481.9z M132.2,314.2c-0.1,0-0.2,0-0.3,0c-2.7-0.2-4.8-2.6-4.6-5.3c1.6-21.3,2.4-42.9,2.4-64.1
			c0-30.4,8.5-60.1,24.4-85.9c15.5-25,37.5-45.5,63.7-59c2.3-1.2,5.4-0.2,6.7,2.1c0.3,0.7,0.5,1.4,0.5,2.2c0,1.9-1,3.6-2.7,4.4
			c-24.5,12.8-45.2,32-59.8,55.5c-15,24.2-22.9,52.1-22.9,80.7c0,21.6-0.8,43.4-2.4,64.9C136.9,312.2,134.8,314.2,132.2,314.2z
			 M451.1,271.3H451c-2.7-0.1-4.9-2.3-4.9-5c0.2-7.4,0.3-14.7,0.3-21.6c-0.1-41-16-79.5-45-108.4c-29-28.9-67.5-44.9-108.4-45
			c-8.5,0-17.1,0.7-25.4,2.1c-2.7,0.4-5.2-1.4-5.7-4.1c-0.5-2.7,1.3-5.2,4.1-5.7c8.9-1.5,18-2.2,27.1-2.2c43.6,0,84.6,17,115.5,47.9
			c30.9,30.8,47.9,71.9,47.9,115.5c0,7.2-0.1,14.6-0.3,21.8C456,269.2,453.8,271.3,451.1,271.3z"/>
	</g>
	<g id="_x34_" class="st1">
		<path class="st4" d="M413.3,322.4c2.3-25.8,3.5-51.8,3.5-77.7c0,0,0,0,0,0c0,0,0,0,0,0c0,0,0,0,0-0.1c0-1,0-1.9,0-2.9
			c0-0.4,0-0.8,0-1.2c0-0.6,0-1.1-0.1-1.7c0-0.5-0.1-1-0.1-1.5c0-0.5,0-0.9-0.1-1.4c0-0.6-0.1-1.1-0.1-1.7c0-0.4-0.1-0.8-0.1-1.2
			c-0.1-0.6-0.1-1.2-0.2-1.8c0-0.4-0.1-0.7-0.1-1.1c-0.1-0.6-0.2-1.3-0.2-1.9c0-0.3-0.1-0.7-0.1-1c-0.1-0.6-0.2-1.3-0.3-1.9
			c0-0.3-0.1-0.6-0.1-0.9c-0.1-0.7-0.2-1.3-0.3-2c-0.1-0.3-0.1-0.6-0.2-0.9c-0.1-0.7-0.3-1.3-0.4-2c-0.1-0.3-0.1-0.6-0.2-0.9
			c-0.1-0.6-0.3-1.3-0.4-1.9c-0.1-0.3-0.1-0.6-0.2-0.9c-0.2-0.6-0.3-1.3-0.5-1.9c-0.1-0.3-0.2-0.6-0.2-0.9c-0.2-0.6-0.3-1.2-0.5-1.8
			c-0.1-0.3-0.2-0.6-0.3-1c-0.2-0.6-0.3-1.2-0.5-1.8c-0.1-0.3-0.2-0.7-0.3-1c-0.2-0.6-0.4-1.1-0.5-1.7c-0.1-0.4-0.3-0.8-0.4-1.1
			c-0.2-0.5-0.4-1-0.5-1.5c-0.1-0.4-0.3-0.8-0.5-1.3c-0.2-0.5-0.4-0.9-0.5-1.4c-0.1-0.3-0.2-0.5-0.3-0.8c0,0,0,0,0-0.1
			c-0.1-0.3-0.3-0.7-0.4-1c-1-2.5-3.9-3.8-6.4-2.7c-2.5,1-3.8,3.9-2.7,6.4c0.2,0.5,0.4,1,0.6,1.4c0.2,0.6,0.5,1.2,0.7,1.8
			c0.1,0.3,0.2,0.5,0.3,0.8c0.2,0.6,0.4,1.1,0.6,1.7c0.1,0.3,0.2,0.6,0.3,0.9c0.2,0.6,0.4,1.1,0.5,1.7c0.1,0.3,0.2,0.6,0.3,0.9
			c0.2,0.5,0.3,1.1,0.5,1.6c0.1,0.3,0.2,0.6,0.3,1c0.1,0.5,0.3,1.1,0.4,1.6c0.1,0.3,0.2,0.7,0.3,1c0.1,0.5,0.3,1,0.4,1.6
			c0.1,0.4,0.2,0.7,0.2,1.1c0.1,0.5,0.2,1,0.3,1.5c0.1,0.4,0.1,0.7,0.2,1.1c0.1,0.5,0.2,1,0.3,1.5c0.1,0.4,0.1,0.8,0.2,1.1
			c0.1,0.5,0.2,1,0.3,1.5c0.1,0.4,0.1,0.8,0.2,1.2c0.1,0.5,0.2,1,0.2,1.5c0.1,0.4,0.1,0.8,0.2,1.2c0.1,0.5,0.1,1,0.2,1.5
			c0,0.4,0.1,0.8,0.1,1.2c0.1,0.5,0.1,0.9,0.1,1.4c0,0.4,0.1,0.9,0.1,1.3c0,0.5,0.1,0.9,0.1,1.4c0,0.5,0.1,1,0.1,1.4
			c0,0.4,0.1,0.8,0.1,1.2c0,0.5,0,1.1,0.1,1.6c0,0.4,0,0.7,0,1.1c0,0.8,0,1.5,0,2.3c0,0.1,0,0.3,0,0.4c0,2.7,0,5.4,0,8
			c-0.3,33.6-2.6,67.5-6.9,100.9c-0.1,1-0.3,2.1-0.4,3.1l-0.8,6c-0.4,2.7,1.5,5.2,4.2,5.6c0.2,0,0.5,0,0.7,0c2.4,0,4.6-1.8,4.9-4.3
			l0.8-6c0,0,0,0,0,0c1.5-11.3,2.7-22.7,3.8-34.1c0-0.4,0.1-0.8,0.1-1.2C413.2,322.6,413.2,322.5,413.3,322.4z"/>
		<path class="st4" d="M149.9,448.3c-2.7-0.7-5.3,1-6,3.6c-4.7,18.9-10.1,37.8-16,56.2c-0.8,2.6,0.6,5.4,3.2,6.2
			c0.5,0.2,1,0.2,1.5,0.2c2.1,0,4-1.3,4.7-3.4c6-18.7,11.4-37.8,16.2-56.9C154.2,451.6,152.6,448.9,149.9,448.3z"/>
		<path class="st4" d="M174.8,331.9c0.3-3.4,0.7-6.9,1-10.3c0.1-0.7,0.1-1.4,0.2-2.2c0.3-3.4,0.6-6.8,0.8-10.2
			c0.1-0.8,0.1-1.5,0.2-2.3c0.2-3.4,0.5-6.7,0.7-10.1c0-0.7,0.1-1.5,0.1-2.2c0.2-3.4,0.4-6.8,0.5-10.1c0-0.7,0.1-1.4,0.1-2.1
			c0.1-3.4,0.3-6.8,0.4-10.2c0-0.7,0-1.4,0.1-2.1c0.1-3.4,0.2-6.8,0.2-10.2c0-0.7,0-1.5,0-2.2c0-3.1,0.1-6.1,0.1-9.1
			c0,0,0-0.1,0-0.1c0-0.3,0-0.7,0-1c0-2.7-2.2-5-4.9-5c0,0,0,0,0,0c-2.7,0-4.9,2.2-4.9,4.9c0,3.6-0.1,7.2-0.1,10.8c0,0.5,0,1,0,1.6
			c-0.1,3.8-0.2,7.6-0.3,11.5c0,0.2,0,0.5,0,0.7c-0.8,24.4-2.6,49-5.4,73.2c0,0,0,0,0,0c0,0,0,0,0,0c0,0,0,0,0,0
			c-2.3,19.6-5.3,39.4-9,58.9c-0.5,2.7,1.3,5.3,3.9,5.8c0.3,0.1,0.6,0.1,0.9,0.1c2.3,0,4.4-1.7,4.9-4c3.7-19.7,6.8-39.7,9.1-59.5
			c0-0.2,0-0.4,0.1-0.6c0.5-3.9,0.9-7.8,1.3-11.6C174.6,333.2,174.7,332.6,174.8,331.9z"/>
		<path class="st4" d="M293,130.9c0.9,0,1.9,0,2.8,0c0.7,0,1.4,0,2.1,0.1c0.2,0,0.4,0,0.7,0c20.3,1,39.7,7.3,56.5,18.3
			c0,0,0.1,0,0.1,0.1c0.7,0.5,1.4,0.9,2.1,1.4c0.1,0.1,0.2,0.1,0.3,0.2c0.6,0.4,1.2,0.9,1.9,1.3c0.2,0.1,0.3,0.2,0.5,0.3
			c0.6,0.4,1.1,0.8,1.7,1.2c0.2,0.2,0.4,0.3,0.6,0.5c0.5,0.4,1,0.8,1.5,1.2c0.3,0.2,0.5,0.4,0.8,0.6c0.4,0.4,0.9,0.7,1.3,1.1
			c0.3,0.2,0.6,0.5,0.9,0.7c0.4,0.3,0.8,0.7,1.1,1c0.3,0.3,0.7,0.6,1,0.9c0.3,0.3,0.7,0.6,1,0.9c0.4,0.3,0.7,0.7,1.1,1
			c0.3,0.3,0.6,0.6,0.9,0.8c0.5,0.5,1,1,1.5,1.5c1.9,1.9,5.1,1.9,7,0c1.9-1.9,1.9-5.1,0-7c-0.3-0.3-0.5-0.5-0.8-0.8
			c0,0,0-0.1-0.1-0.1c-0.3-0.3-0.5-0.5-0.8-0.8c-0.3-0.3-0.6-0.6-0.9-0.9c-0.4-0.4-0.8-0.7-1.2-1.1c-0.4-0.3-0.7-0.7-1.1-1
			c-0.4-0.3-0.7-0.6-1.1-0.9c-0.4-0.4-0.9-0.7-1.3-1.1c-0.3-0.3-0.6-0.5-0.9-0.8c-0.5-0.4-1-0.8-1.5-1.2c-0.2-0.2-0.5-0.4-0.7-0.6
			c-0.6-0.5-1.1-0.9-1.7-1.3c-0.2-0.1-0.3-0.3-0.5-0.4c-0.6-0.5-1.3-1-2-1.5c-0.1-0.1-0.2-0.2-0.3-0.2c-0.7-0.5-1.5-1-2.2-1.5
			c0,0-0.1,0-0.1-0.1c-18.8-13-40.8-20.4-63.9-21.5c-0.1,0-0.2,0-0.2,0c-0.9,0-1.9-0.1-2.8-0.1c-1,0-2,0-3,0c0,0,0,0,0,0
			c0,0,0,0,0,0c-1.6,0-3.1,0-4.7,0.1c-40.4,1.5-76.8,22.4-98.6,55.4c0,0.1-0.1,0.1-0.2,0.2c-0.7,1.1-1.4,2.2-2.1,3.3
			c-0.1,0.2-0.3,0.5-0.4,0.7c-0.6,1-1.1,1.9-1.7,2.9c-0.2,0.4-0.5,0.8-0.7,1.2c-0.5,0.9-0.9,1.7-1.4,2.6c-0.3,0.5-0.6,1.1-0.8,1.6
			c-0.4,0.8-0.7,1.5-1.1,2.3c-0.3,0.7-0.6,1.3-0.9,2c-0.3,0.7-0.6,1.4-0.9,2.1c-0.2,0.6-0.5,1.1-0.7,1.7c0,0.1,0,0.1,0,0.2
			c-0.1,0.3-0.3,0.6-0.4,1c-1,2.5,0.2,5.4,2.7,6.4c0.6,0.2,1.2,0.4,1.9,0.4c2,0,3.8-1.2,4.6-3.1c0.4-0.9,0.7-1.7,1.1-2.6
			c0.3-0.6,0.5-1.3,0.8-1.9c0.3-0.6,0.6-1.2,0.9-1.9c0.3-0.7,0.7-1.4,1-2.1c0.3-0.5,0.5-1,0.8-1.5c0.4-0.8,0.8-1.6,1.3-2.4
			c0.2-0.4,0.4-0.7,0.6-1.1c0.5-0.9,1-1.8,1.6-2.7c0.1-0.2,0.2-0.4,0.4-0.6c0.6-1,1.3-2.1,1.9-3.1c0,0,0.1-0.1,0.1-0.1
			c20-30.4,53.6-49.7,90.8-51.1c1,0,2,0,3-0.1C292.1,130.9,292.6,130.9,293,130.9z"/>
		<path class="st4" d="M396.4,407.4c-2.7-0.5-5.3,1.2-5.8,3.9c-8.6,43.8-20.8,87.3-36.2,129.3l-8,21.8c-0.9,2.6,0.4,5.4,2.9,6.3
			c0.6,0.2,1.1,0.3,1.7,0.3c2,0,3.9-1.2,4.6-3.3l8-21.8c15.5-42.4,27.8-86.4,36.6-130.8C400.8,410.5,399.1,407.9,396.4,407.4z"/>
	</g>
	<g id="_x33_" class="st1">
		<path class="st4" d="M207.4,349.9c-2.7-0.4-5.2,1.6-5.5,4.3c-0.3,2-0.5,3.9-0.8,5.9c-0.8,5.6-1.6,11.3-2.4,16.9c0,0,0,0,0,0
			c-8.2,52.7-21.4,104.9-39.2,155.2c-0.9,2.6,0.4,5.4,3,6.3c0.5,0.2,1.1,0.3,1.7,0.3c2,0,3.9-1.3,4.7-3.3
			c18-50.9,31.3-103.7,39.6-156.9c0.3-1.8,0.5-3.7,0.8-5.5c0.3-1.8,0.5-3.6,0.8-5.3c0.3-2.2,0.6-4.4,0.9-6.6c0.2-1.3,0.4-2.7,0.6-4
			c0,0,0,0,0,0c0.1-0.5,0.1-0.9,0.2-1.4C212,352.7,210.1,350.2,207.4,349.9z"/>
		<path class="st4" d="M366.2,234.4c0,0.2,0.1,0.3,0.1,0.5c0.1,0.9,0.3,1.8,0.4,2.7c0,0.4,0.1,0.7,0.1,1.1c0.1,0.8,0.1,1.5,0.2,2.3
			c0,0.5,0.1,1,0.1,1.5c0,0.7,0.1,1.3,0.1,2c0,0.8,0.1,1.6,0.1,2.4v0.4c0,2.7,2.2,4.8,4.9,4.8c2.7,0,4.9-2.4,4.9-5.1
			c0-0.3,0-0.6,0-1c0-0.1,0-0.1,0-0.2c0-0.5,0-1-0.1-1.6c0-0.7,0-1.5-0.1-2.2c0-0.6-0.1-1.2-0.1-1.8c-0.1-0.8-0.1-1.7-0.2-2.5
			c0-0.4-0.1-0.9-0.2-1.3c-0.1-1-0.2-2-0.4-3c0-0.2-0.1-0.4-0.1-0.6c-6.1-38.2-36.5-68.1-74.8-71.8c-1.4-0.1-2.7-0.2-4.1-0.3
			c-0.2,0-0.3,0-0.5,0c-11.9-0.5-23.2,1.5-33.6,5.5c-28.7,11-49.9,37.2-53.5,68.8c-0.4,3.2-0.6,6.5-0.6,9.8c0,7-0.1,14-0.3,21
			c0,0.6,0,1.2,0,1.8c0,1.5-0.1,3-0.1,4.5c0,1.1-0.1,2.2-0.1,3.2c0,1.2-0.1,2.4-0.1,3.5c-0.1,1.4-0.1,2.8-0.2,4.2
			c0,0.9-0.1,1.9-0.1,2.8c-0.1,1.7-0.2,3.3-0.2,5c0,0.7-0.1,1.4-0.1,2.2c-0.1,1.9-0.2,3.7-0.3,5.6c0,0.6-0.1,1.1-0.1,1.7
			c-0.1,2.1-0.3,4.2-0.4,6.4c-0.2,2.7,1.9,5.1,4.6,5.3c0.1,0,0.2,0,0.4,0c2.6,0,4.7-2,4.9-4.6c0-0.5,0.1-1,0.1-1.4c0,0,0,0,0,0
			c0-0.6,0.1-1.2,0.1-1.8c0.1-1.8,0.2-3.6,0.4-5.4c0.1-0.9,0.1-1.8,0.2-2.7c0.1-1.6,0.2-3.3,0.3-4.9c0.1-1,0.1-1.9,0.1-2.9
			c0.1-1.6,0.2-3.2,0.2-4.8c0-0.9,0.1-1.8,0.1-2.8c0.1-1.7,0.1-3.3,0.2-5c0-0.8,0-1.5,0.1-2.3c0.1-1.8,0.1-3.6,0.2-5.5
			c0-0.4,0-0.9,0-1.3c0.2-7.2,0.3-14.5,0.3-21.7c0-2.9,0.2-5.7,0.5-8.5c4.4-38.1,37.8-67.5,77.3-65.6c1.2,0.1,2.4,0.1,3.7,0.3
			C333.9,174.1,360.8,200.6,366.2,234.4z"/>
		<path class="st4" d="M371.1,290.4c-2.7-0.1-5.1,1.9-5.2,4.7c-0.2,3.9-0.5,7.7-0.7,11.6c0,0,0,0,0,0c-1.9,27.2-5.2,54.4-9.7,81.2
			c0,0.1,0,0.3,0,0.4c-8.6,51.1-22,101.7-39.8,150.4l-11.2,30.7c-0.9,2.6,0.4,5.4,2.9,6.3c0.6,0.2,1.1,0.3,1.7,0.3
			c2,0,3.9-1.2,4.6-3.3l11.2-30.7c18-49.3,31.6-100.5,40.3-152.3c4.6-27.2,7.9-54.8,9.8-82.3c0-0.2,0-0.4,0-0.6
			c0.2-2.7,0.4-5.4,0.5-8.1l0.2-2.8c0,0,0-0.1,0-0.1c0-0.1,0-0.2,0-0.3C375.9,292.9,373.8,290.6,371.1,290.4z"/>
	</g>
	<g id="_x32_" class="st1">
		<path class="st4" d="M251.4,303.8c-2.7-0.2-5.1,1.8-5.3,4.6c-0.2,2.3-0.4,4.6-0.6,7c-0.1,1.7-0.3,3.3-0.4,5
			c-0.2,2.1-0.4,4.1-0.6,6.2c-0.1,1.5-0.3,2.9-0.4,4.4c-0.2,2.3-0.5,4.5-0.7,6.8c-0.1,1.3-0.3,2.6-0.4,3.9c-0.3,2.4-0.6,4.9-0.9,7.3
			c-0.1,1.1-0.3,2.3-0.4,3.4c-0.3,2.6-0.7,5.3-1,7.9c-0.1,0.9-0.2,1.8-0.4,2.7c-0.4,3-0.9,6-1.3,9c-0.1,0.6-0.2,1.1-0.2,1.7
			c-1.1,7.1-2.2,14.3-3.5,21.4c0,0,0,0,0,0c-8.8,49.5-22,98.5-39.2,145.6l-3.4,9.3c-0.9,2.6,0.4,5.4,2.9,6.3
			c0.6,0.2,1.1,0.3,1.7,0.3c2,0,3.9-1.2,4.6-3.3l3.4-9.3c17.5-47.7,30.8-97.3,39.7-147.3c0,0,0,0,0,0c0.4-2,0.7-4,1-6
			c0.3-1.5,0.5-3.1,0.8-4.6c0.3-1.6,0.5-3.2,0.8-4.8c0.3-2,0.6-4,0.9-6c0.2-1.6,0.5-3.1,0.7-4.7c0.3-2,0.6-4,0.9-6.1
			c0.2-1.6,0.4-3.2,0.6-4.8c0.3-2,0.5-4,0.8-6c0.2-1.6,0.4-3.2,0.6-4.8c0.2-2,0.5-4,0.7-6c0.2-1.6,0.3-3.2,0.5-4.8
			c0.2-2,0.4-4.1,0.6-6.1c0.2-1.6,0.3-3.1,0.4-4.7c0.2-2.1,0.4-4.1,0.6-6.2c0.1-1.5,0.3-3,0.4-4.5c0.1-1.6,0.3-3.2,0.4-4.8
			c0-0.1,0-0.1,0-0.2c0.1-0.8,0.1-1.7,0.2-2.5C256.2,306.4,254.1,304,251.4,303.8z"/>
		<path class="st4" d="M327.1,343.4c-2.7-0.3-5.2,1.6-5.5,4.3c-0.4,3.5-0.9,7-1.3,10.5c-0.2,1.8-0.5,3.5-0.7,5.3
			c-0.4,2.6-0.7,5.1-1.1,7.7c-0.2,1.6-0.5,3.3-0.7,4.9c-0.4,2.8-0.9,5.6-1.3,8.4c-0.2,1.4-0.4,2.8-0.7,4.2c-0.7,4-1.4,8-2.1,12
			c0,0.2-0.1,0.3-0.1,0.5c-8.7,46.9-21.4,93.3-37.8,138.1l-10.8,29.4c-0.9,2.6,0.4,5.4,2.9,6.3c0.6,0.2,1.1,0.3,1.7,0.3
			c2,0,3.9-1.2,4.6-3.3l10.8-29.4c16.6-45.3,29.4-92.3,38.2-139.7c0,0,0,0,0,0c0.7-3.6,1.3-7.2,1.9-10.8c0.1-0.5,0.2-0.9,0.2-1.4
			c0.6-3.4,1.1-6.9,1.7-10.3c0.1-0.7,0.2-1.3,0.3-2c0.5-3.3,1-6.7,1.5-10c0.1-0.7,0.2-1.4,0.3-2.1c0.4-3,0.8-5.9,1.2-8.9
			c0.1-0.5,0.1-0.9,0.2-1.4c0,0,0,0,0,0c0.3-2.4,0.6-4.8,0.9-7.2C331.7,346.1,329.8,343.7,327.1,343.4z"/>
		<path class="st4" d="M336.3,292.5c0.1-2.6,0.3-5.2,0.4-7.8c0.1-1.8,0.1-3.6,0.2-5.4c0.1-2.5,0.2-5,0.3-7.5c0.1-2,0.1-3.9,0.1-5.9
			c0.1-2.3,0.1-4.7,0.2-7c0-3.3,0.1-6.5,0.1-9.7c0-1,0-2,0-3.1c0-24.2-18.3-44.3-41.6-45.8c-0.5,0-1,0-1.5-0.1
			c-25.3-0.8-46,19.5-46,44.5c0,2.7,0,5.5,0,8.2c0,0.5,0,0.9,0,1.4c0,2.5-0.1,5-0.1,7.5c-0.1,2.7,2.1,5,4.8,5c2.7,0,5-2.1,5.1-4.9
			c0-0.9,0-1.7,0-2.6c0,0,0-0.1,0-0.1c0-1.6,0-3.2,0.1-4.9c0-0.5,0-1,0-1.5c0-2.8,0-5.6,0-8.3c0-17.4,12.8-31.8,29.5-34.3
			c2.4-0.3,4.9-0.5,7.4-0.3c18.1,1.2,32.3,17,32.3,35.9c0,1.1,0,2.3,0,3.4c0,3.1,0,6.1-0.1,9.2c0,2.3-0.1,4.5-0.1,6.8
			c0,2-0.1,4-0.1,6c-0.1,2.3-0.2,4.7-0.3,7c-0.1,1.9-0.1,3.9-0.2,5.8c-0.1,2.4-0.2,4.7-0.4,7.1c-0.1,2.4-0.2,4.9-0.4,7.3
			c-0.2,2.7,1.9,5.1,4.6,5.2c0.1,0,0.2,0,0.3,0c2.6,0,4.8-2,4.9-4.6c0.1-0.9,0.1-1.7,0.1-2.6c0,0,0-0.1,0-0.1
			C336.1,295.2,336.2,293.9,336.3,292.5z"/>
	</g>
	<g id="_x31_" class="st1">
		<path class="st4" d="M232.4,568.8c-0.5,0-1.1-0.1-1.7-0.3c-2.6-0.9-3.9-3.8-3-6.4l7.9-21.6c4.8-13,9.2-26.1,13.2-38.9
			c0.8-2.6,3.6-4.1,6.2-3.3c2.6,0.8,4.1,3.6,3.3,6.2c-4.2,13.3-8.7,26.6-13.4,39.4l-7.9,21.6C236.3,567.5,234.4,568.8,232.4,568.8z
			 M267,460.4c-0.4,0-0.8-0.1-1.2-0.1c-2.7-0.6-4.3-3.4-3.6-6c4.3-17,8-34.2,11.2-51.3c9.7-52,14.7-105.3,14.7-158.2
			c0-2.7,2.2-4.9,4.9-4.9c2.7,0,4.9,2.2,4.9,4.9c0,53.6-5,107.4-14.8,160c-3.2,17.4-7,34.8-11.3,51.9
			C271.2,458.9,269.2,460.4,267,460.4z"/>
	</g>
</g>
<g id="中心扩展" class="st0">
	<g id="_x34__1_">
		<path class="st5" d="M404.4,362.3c-0.2,0-0.4,0-0.7,0c-2.7-0.4-4.6-2.8-4.3-5.6c4.9-37,7.3-74.7,7.3-112c0-14.7-2.8-29-8.2-42.5
			c-1-2.5,0.2-5.4,2.7-6.4c2.5-1,5.4,0.2,6.4,2.7c5.9,14.7,8.9,30.2,8.9,46.2c0,37.7-2.5,75.9-7.4,113.3
			C409,360.5,406.9,362.3,404.4,362.3z M168.3,350.5c-0.2,0-0.4,0-0.6,0c-2.7-0.3-4.7-2.8-4.3-5.5c3.7-31.9,5.7-64.4,5.9-96.6
			c0-2.7,2.2-5,5-4.9c2.7,0,4.9,2.2,4.9,5c-0.1,32.5-2.1,65.4-5.9,97.7C172.9,348.6,170.8,350.5,168.3,350.5z M182.9,205
			c-0.6,0-1.2-0.1-1.9-0.4c-2.5-1-3.8-3.9-2.7-6.4c19-46.9,64.1-77.2,114.7-77.2c32.4,0,63.1,12.5,86.3,35.1c2,1.9,2,5,0.1,7
			c-1.9,2-5,2-7,0.1c-21.4-20.8-49.6-32.3-79.4-32.3c-46.6,0-88,27.9-105.5,71C186.7,203.8,184.8,205,182.9,205z"/>
	</g>
	<g id="_x33__1_">
		<path class="st5" d="M360.3,393.7c-0.3,0-0.5,0-0.8-0.1c-2.7-0.5-4.5-3-4.1-5.7c5.2-30.6,8.7-61.9,10.4-92.9
			c0.2-2.7,2.6-4.8,5.2-4.7c2.7,0.2,4.8,2.5,4.7,5.2c-1.8,31.4-5.3,63-10.6,93.9C364.8,392,362.7,393.7,360.3,393.7z M203.5,382.6
			c-0.3,0-0.5,0-0.8-0.1c-2.7-0.4-4.6-3-4.1-5.7c1.1-7.1,2.1-14.2,3-21.3c0.4-2.7,2.9-4.6,5.5-4.3c2.7,0.4,4.6,2.8,4.3,5.5
			c-0.9,7.2-2,14.4-3.1,21.6C208,380.9,205.9,382.6,203.5,382.6z M211.6,311.9c-0.1,0-0.2,0-0.4,0c-2.7-0.2-4.8-2.6-4.6-5.3
			c1.5-20.5,2.2-41.3,2.2-61.9c0-47.8,40-86.3,88.2-84.1c44.3,2.1,79.5,39.5,80.1,85.1c0,2.7-2.2,5-4.9,5c-2.6,0.1-5-2.1-5-4.9
			c-0.5-40.4-31.6-73.5-70.6-75.4c-42.7-2-77.8,32-77.8,74.2c0,20.8-0.8,41.9-2.3,62.6C216.3,309.9,214.1,311.9,211.6,311.9z"/>
	</g>
	<g id="_x32__1_">
		<path class="st5" d="M318.3,407c-0.3,0-0.6,0-0.9-0.1c-2.7-0.5-4.5-3.1-4-5.8c3.3-17.7,6-35.7,8.1-53.5c0.3-2.7,2.8-4.6,5.5-4.3
			c2.7,0.3,4.7,2.8,4.3,5.5c-2.2,18-4.9,36.2-8.2,54.1C322.7,405.4,320.6,407,318.3,407z M240.1,400.7c-0.3,0-0.6,0-0.9-0.1
			c-2.7-0.5-4.5-3-4-5.7c5.1-28.5,8.7-57.6,10.8-86.5c0.2-2.7,2.6-4.8,5.3-4.6c2.7,0.2,4.8,2.6,4.6,5.3c-2.2,29.2-5.9,58.7-11,87.5
			C244.6,399,242.5,400.7,240.1,400.7z M331,303.9c-0.1,0-0.2,0-0.3,0c-2.7-0.2-4.8-2.5-4.6-5.2c1.1-17.4,1.6-35.1,1.6-52.6
			c0-19-14.2-34.8-32.3-35.9c-20.2-1.3-37,14.7-37,34.6c0,4.9,0,9.8-0.1,14.7c0,2.7-2.3,4.9-5,4.9c-2.7,0-4.9-2.3-4.9-5
			c0.1-4.8,0.1-9.7,0.1-14.5c0-25.6,21.5-46.2,47.5-44.5c23.3,1.5,41.6,21.6,41.6,45.8c0,17.7-0.5,35.6-1.6,53.2
			C335.7,301.9,333.6,303.9,331,303.9z"/>
		<path class="st5" d="M336.3,292.5c0.1-2.6,0.3-5.2,0.4-7.8c0.1-1.8,0.1-3.6,0.2-5.4c0.1-2.5,0.2-5,0.3-7.5c0.1-2,0.1-3.9,0.1-5.9
			c0.1-2.3,0.1-4.7,0.2-7c0-3.3,0.1-6.5,0.1-9.7c0-1,0-2,0-3.1c0-24.2-18.3-44.3-41.6-45.8c-0.5,0-1,0-1.5-0.1
			c-25.3-0.8-46,19.5-46,44.5c0,2.7,0,5.5,0,8.2c0,0.5,0,0.9,0,1.4c0,2.5-0.1,5-0.1,7.5c-0.1,2.7,2.1,5,4.8,5c2.7,0,5-2.1,5.1-4.9
			c0-0.9,0-1.7,0-2.6c0,0,0-0.1,0-0.1c0-1.6,0-3.2,0.1-4.9c0-0.5,0-1,0-1.5c0-2.8,0-5.6,0-8.3c0-17.4,12.8-31.8,29.5-34.3
			c2.4-0.3,4.9-0.5,7.4-0.3c18.1,1.2,32.3,17,32.3,35.9c0,1.1,0,2.3,0,3.4c0,3.1,0,6.1-0.1,9.2c0,2.3-0.1,4.5-0.1,6.8
			c0,2-0.1,4-0.1,6c-0.1,2.3-0.2,4.7-0.3,7c-0.1,1.9-0.1,3.9-0.2,5.8c-0.1,2.4-0.2,4.7-0.4,7.1c-0.1,2.4-0.2,4.9-0.4,7.3
			c-0.2,2.7,1.9,5.1,4.6,5.2c0.1,0,0.2,0,0.3,0c2.6,0,4.8-2,4.9-4.6c0.1-0.9,0.1-1.7,0.1-2.6c0,0,0-0.1,0-0.1
			C336.1,295.2,336.2,293.9,336.3,292.5z"/>
	</g>
	<g id="_x31__1_">
		<path class="st5" d="M278.3,408.8c-0.3,0-0.6-0.1-0.9-0.1c-2.7-0.5-4.4-3.1-3.9-5.8c9.7-52,14.7-105.2,14.7-158.1
			c0-2.8,2.2-4.9,4.9-4.9c2.7,0,4.9,2.2,4.9,4.9c0,53.5-5,107.4-14.8,160C282.7,407.1,280.6,408.8,278.3,408.8z"/>
	</g>
</g>
<g id="边缘路径" class="st0">
	<path class="st6" d="M127.2,357.9c-5.3,40.2-13.4,79.9-24.3,119"/>
	<path class="st6" d="M219.9,104.2c-50.7,26.4-85.3,79.4-85.3,140.6v0c0,21.6-0.8,43.1-2.4,64.6"/>
	<path class="st6" d="M451.1,266.1c0.2-7.1,0.3-14.3,0.3-21.4v0c0-87.5-70.9-158.4-158.4-158.4h0c-9,0-17.8,0.7-26.4,2.2"/>
	<path class="st6" d="M396.9,547l1.7-4.7c26.7-73.1,43.5-149.3,49.8-226.6"/>
	<path class="st6" d="M460.7,139.5C479.9,170,491,206.1,491,244.7v0c0,90.9-14.4,181.2-42.4,267.6"/>
	<path class="st6" d="M167.1,91.9c34.2-28.2,78-45.1,125.8-45.1h0c50.6,0,96.7,19,131.7,50.2c0.3,0.3,0.6,0.6,0.9,0.9
		c1.3,1.2,2.6,2.4,3.8,3.6"/>
	<path class="st6" d="M75,429.8c13.3-60.7,20-122.7,20-185.1v0c0-43.7,14.1-84.1,38.1-116.8l1.7-2.3"/>
	<path class="st6" d="M525.9,205.7c2.3,13.2,3.5,26.9,3.5,40.7v11.3c0,37.4-2.4,74.7-7.2,111.7c-1.1,8.1-2.5,16.8-4.2,25.9
		c-4.6,22.2-7.1,38.3-11,56.1"/>
	<path class="st6" d="M419.1,46.1c41.6,26.6,74.4,65.7,93.1,111.9"/>
	<path class="st6" d="M80.9,139.9c0-0.1,0.1-0.2,0.1-0.2c0.1-0.1,0.2-0.3,0.2-0.4C120.7,62.1,199.7,8.9,291.9,8.9h0
		c29.1,0,57,5.3,82.8,15"/>
	<path class="st6" d="M50.6,333.8c0,0,5-34,4-77.6c-0.3-11.3,0-22.7,1.4-34c1.5-12.3,3.8-24.2,7-35.9"/>
	<path class="st6" d="M250.8,311.3c-2.2,28.3-5.8,56.5-10.7,84.4c-8.8,49.8-22,98.8-39.5,146.5l-3.4,9.3"/>
	<path class="st6" d="M331.1,296.1c1-16.6,1.5-33.3,1.5-50v0c0-21.1-15.9-39.5-37-40.9c-23.1-1.5-42.2,16.8-42.2,39.5v0
		c0,5.6-0.1,11.3-0.2,16.9"/>
	<path class="st6" d="M269.6,570.4l10.8-29.4c16.6-45.3,29.2-91.7,38-138.9c2.9-15.5,5.3-31.1,7.3-46.8"/>
	<path class="st6" d="M206.8,354.3c-1,7.8-2.1,15.6-3.3,23.3c-8.3,53-21.4,105.3-39.4,156"/>
	<path class="st6" d="M372.2,246.9L372.2,246.9c0-42.6-32.8-79.3-75.4-81.3c-45.5-2.1-83,34.1-83,79.1v0c0,20.2-0.7,40.4-2.1,60.5
		l0,0.3"/>
	<path class="st6" d="M309,570.8l11.2-30.7c18-49.2,31.4-99.9,40.1-151.4c5-29.9,8.5-60.1,10.3-90.5c0.1-0.9,0.1-1.9,0.2-2.8"/>
	<path class="st6" d="M148.8,452.8c-4.7,19.1-10.1,38-16.1,56.8"/>
	<path class="st6" d="M174.2,244.7L174.2,244.7c0,0.9,0,1.7,0,2.6c-0.1,32.9-2.1,65.7-5.9,98.2c-2.3,19.7-5.3,39.3-9,58.8
		c0,0.2-0.1,0.3-0.1,0.5"/>
	<path class="st6" d="M376.9,160.6c-21.5-21.4-51.1-34.7-83.9-34.7c-49.5,0-92,30.3-109.8,73.4"/>
	<path class="st6" d="M403.6,363.5c0.3-2.1,0.6-4.1,0.8-6.2c4.9-37.3,7.4-74.9,7.4-112.6v0c0-15.1-2.8-29.4-7.9-42.7
		c-0.1-0.3-0.2-0.6-0.3-0.8"/>
	<path class="st6" d="M351.1,564.1l8-21.8c15.5-42.4,27.7-85.9,36.4-130.1"/>
	<path class="st6" d="M253.6,503c-4.1,13.2-8.6,26.3-13.3,39.3l-7.9,21.6"/>
	<path class="st6" d="M293,244.8c0,53.5-5,106.7-14.7,159.1c-3.2,17.3-7,34.5-11.3,51.6"/>
</g>
<g id="中心路径">
	<path class="st7" d="M206.6,356.2c0,0.1,0,0.3,0,0.4c-0.9,7.1-1.9,14.1-3,21.2"/>
	<path class="st7" d="M372.2,245.9c0-0.2,0-0.4,0-0.6c0-0.1,0-0.2,0-0.4c-1.1-41.7-33.5-77.2-75.3-79.1c-45.5-2.1-83,34.1-83,79.1v0
		c0,20.5-0.7,41-2.2,61.4c0,0.2,0,0.4,0,0.6c0,0.1,0,0.2,0,0.3"/>
	<path class="st7" d="M360.3,388.9c5.1-30.4,8.6-61.1,10.4-91.9c0-0.1,0-0.3,0-0.4c0-0.2,0-0.3,0-0.5c0-0.1,0-0.1,0-0.2
		c0-0.2,0-0.3,0-0.5"/>
	<path class="st7" d="M174.2,248.1c-0.1,32.7-2.1,65.3-5.9,97.6"/>
	<path class="st7" d="M376.2,160.1c-0.1-0.1-0.3-0.3-0.4-0.4c-21.4-20.8-50.6-33.6-82.8-33.6c-49.6,0-92.1,30.4-109.9,73.6
		c-0.1,0.1-0.1,0.3-0.2,0.4"/>
	<path class="st7" d="M404.4,357.5c4.9-37.3,7.4-74.9,7.4-112.6v0c0-15.7-3-30.6-8.5-44.3"/>
	<path class="st8" d="M331,299c1.1-17.5,1.6-35.1,1.6-52.7v0c0-21.1-15.9-39.5-37-40.9c-23.1-1.5-42.2,16.8-42.2,39.5v0
		c0,4.5,0,8.9-0.1,13.4c0,0.2,0,0.5,0,0.7c0,0.1,0,0.2,0,0.4l0,2.6"/>
	<path class="st7" d="M251,308.9c0,0.4-0.1,0.7-0.1,1.1c-2.2,28.8-5.8,57.5-10.8,85.9"/>
	<path class="st7" d="M318.3,402.2c3.3-17.8,6-35.7,8.2-53.6c0-0.1,0-0.2,0-0.3c0-0.1,0-0.2,0-0.3"/>
	<path class="st7" d="M293,244.9c0,53.5-5,106.7-14.7,159.1"/>
</g>
</svg>
